<?xml version="1.0" encoding="UTF-8" standalone="no"?>
<!-- Created with Inkscape (http://www.inkscape.org/) -->

<svg
   version="1.1"
   id="svg2"
   width="1090.0267"
   height="294.16"
   viewBox="0 0 1090.0267 294.16"
   sodipodi:docname="Logo-AtlasOutdoor_Horizontal.eps"
   xmlns:inkscape="http://www.inkscape.org/namespaces/inkscape"
   xmlns:sodipodi="http://sodipodi.sourceforge.net/DTD/sodipodi-0.dtd"
   xmlns="http://www.w3.org/2000/svg"
   xmlns:svg="http://www.w3.org/2000/svg">
  <defs
     id="defs6" />
  <sodipodi:namedview
     id="namedview4"
     pagecolor="#ffffff"
     bordercolor="#000000"
     borderopacity="0.25"
     inkscape:showpageshadow="2"
     inkscape:pageopacity="0.0"
     inkscape:pagecheckerboard="0"
     inkscape:deskcolor="#d1d1d1" />
  <g
     id="g8"
     inkscape:groupmode="layer"
     inkscape:label="ink_ext_XXXXXX"
     transform="matrix(1.3333333,0,0,-1.3333333,0,294.16)">
    <g
       id="g10"
       transform="scale(0.1)">
      <path
         d="m 3933.56,1561.11 -68.09,159.48 c -17.92,41.22 -31.07,73.77 -39.43,97.67 -6.57,-20.31 -17.91,-52.57 -34.04,-96.77 l -61.82,-160.38 z m 221.31,-240.12 c -35.84,1.79 -69.88,2.69 -102.14,2.69 -31.67,0 -65.41,-0.9 -101.25,-2.69 0,17.31 2.09,30.15 6.27,38.53 16.72,1.79 28.52,4.47 35.39,8.06 6.86,3.58 10.31,9.55 10.31,17.92 0,7.17 -4.48,21.8 -13.44,43.9 l -39.42,91.39 c -94.97,0 -173.82,-1.2 -236.54,-3.58 l -24.19,-61.82 c -9.57,-25.09 -14.34,-44.8 -14.34,-59.14 0,-11.95 3.72,-20.76 11.2,-26.43 7.46,-5.68 19.26,-9.11 35.39,-10.3 4.17,-10.17 6.27,-23.01 6.27,-38.53 -20.31,1.79 -48.69,2.69 -85.11,2.69 -15.55,0 -40.33,-0.9 -74.37,-2.69 0,14.92 2.09,27.47 6.27,37.63 15.53,2.98 27.77,10.75 36.73,23.29 8.96,12.55 20.61,37.04 34.95,73.48 l 185.47,475.76 c 10.15,2.38 21.8,3.58 34.94,3.58 l 213.24,-489.2 c 14.93,-33.46 26.73,-55.55 35.39,-66.3 8.66,-10.75 19.86,-17.34 33.61,-19.71 3.58,-11.96 5.37,-24.8 5.37,-38.53"
         style="fill:#172842;fill-opacity:1;fill-rule:nonzero;stroke:none"
         id="path12" />
      <path
         d="m 4661.85,1899.8 c 0,-23.91 2.09,-60.93 6.27,-111.11 -12.54,-5.98 -27.48,-8.67 -44.79,-8.06 -1.21,35.83 -9.86,63.01 -25.99,81.53 -16.12,18.51 -41.21,27.78 -75.26,27.78 h -47.49 v -452.48 c 0,-20.91 1.79,-36.59 5.38,-47.03 3.58,-10.46 10.3,-17.92 20.16,-22.4 9.86,-4.48 24.64,-7.32 44.35,-8.51 2.98,-8.38 4.48,-21.22 4.48,-38.53 -38.23,1.79 -77.36,2.69 -117.37,2.69 -44.81,0 -83.93,-0.9 -117.38,-2.69 0,17.31 1.49,30.15 4.49,38.53 19.7,1.19 34.63,4.03 44.79,8.51 10.15,4.48 17.16,12.09 21.06,22.85 3.87,10.75 5.82,26.27 5.82,46.58 v 452.48 h -45.7 c -27.48,0 -48.69,-4.35 -63.61,-13 -14.94,-8.66 -25.54,-20.31 -31.81,-34.94 -6.27,-14.64 -11.8,-35.1 -16.57,-61.37 -19.72,0 -34.05,2.69 -43.01,8.06 9.54,53.76 14.34,101.54 14.34,143.36 33.44,-1.79 109.6,-2.69 228.48,-2.69 120.64,0 197.4,0.9 230.26,2.69 l -0.9,-32.25"
         style="fill:#172842;fill-opacity:1;fill-rule:nonzero;stroke:none"
         id="path14" />
      <path
         d="m 5113.28,1374.75 c 19.11,7.16 34.34,18.51 45.7,34.04 11.34,15.53 22.39,38.23 33.14,68.1 17.33,-5.38 30.47,-12.55 39.43,-21.5 -11.35,-35.25 -20.61,-79.75 -27.78,-133.5 -46.59,1.2 -104.53,1.79 -173.81,1.79 -109.92,0 -187.27,-0.9 -232.06,-2.69 0,17.31 1.48,30.15 4.48,38.53 16.71,1.19 29.41,4.17 38.07,8.96 8.66,4.77 14.93,13.28 18.82,25.53 3.88,12.24 5.82,30.02 5.82,53.31 v 368.25 c 0,29.86 -4.33,50.02 -12.99,60.48 -8.67,10.44 -24.95,16.27 -48.83,17.47 -2.99,8.36 -4.48,21.2 -4.48,38.53 34.63,-1.79 70.79,-2.69 108.41,-2.69 36.43,0 72.58,0.9 108.42,2.69 0,-17.33 -1.5,-30.17 -4.48,-38.53 -16.73,-1.2 -29.43,-4.03 -38.08,-8.51 -8.67,-4.48 -14.78,-12.4 -18.37,-23.74 -3.58,-11.36 -5.38,-27.48 -5.38,-48.39 v -365.56 c 0,-23.29 2.09,-40.62 6.28,-51.96 4.17,-11.36 11.94,-19.42 23.29,-24.2 11.34,-4.78 28.37,-7.17 51.08,-7.17 h 5.37 c 32.84,0 58.83,3.59 77.95,10.76"
         style="fill:#172842;fill-opacity:1;fill-rule:nonzero;stroke:none"
         id="path16" />
      <path
         d="m 5698.21,1561.11 -68.1,159.48 c -17.91,41.22 -31.06,73.77 -39.41,97.67 -6.58,-20.31 -17.92,-52.57 -34.05,-96.77 l -61.83,-160.38 z m 221.31,-240.12 c -35.84,1.79 -69.89,2.69 -102.14,2.69 -31.67,0 -65.41,-0.9 -101.25,-2.69 0,17.31 2.09,30.15 6.28,38.53 16.71,1.79 28.51,4.47 35.39,8.06 6.85,3.58 10.3,9.55 10.3,17.92 0,7.17 -4.48,21.8 -13.44,43.9 l -39.42,91.39 c -94.98,0 -173.83,-1.2 -236.54,-3.58 l -24.19,-61.82 c -9.56,-25.09 -14.34,-44.8 -14.34,-59.14 0,-11.95 3.72,-20.76 11.2,-26.43 7.46,-5.68 19.26,-9.11 35.39,-10.3 4.17,-10.17 6.27,-23.01 6.27,-38.53 -20.31,1.79 -48.69,2.69 -85.11,2.69 -15.54,0 -40.33,-0.9 -74.37,-2.69 0,14.92 2.08,27.47 6.27,37.63 15.53,2.98 27.77,10.75 36.74,23.29 8.95,12.55 20.6,37.04 34.94,73.48 l 185.47,475.76 c 10.14,2.38 21.79,3.58 34.94,3.58 l 213.24,-489.2 c 14.92,-33.46 26.73,-55.55 35.39,-66.3 8.65,-10.75 19.86,-17.34 33.61,-19.71 3.58,-11.96 5.37,-24.8 5.37,-38.53"
         style="fill:#172842;fill-opacity:1;fill-rule:nonzero;stroke:none"
         id="path18" />
      <path
         d="m 6117.39,1329.5 c -27.48,9.25 -57.05,23.74 -88.7,43.45 5.37,33.45 8.06,75.86 8.06,127.23 13.73,3.59 29.86,5.38 48.38,5.38 2.38,-47.8 14.47,-84.22 36.29,-109.31 21.8,-25.09 55.69,-37.63 101.69,-37.63 38.83,0 67.65,8.51 86.47,25.54 18.81,17.02 28.22,39.56 28.22,67.64 0,23.3 -5.98,43.01 -17.92,59.14 -11.96,16.13 -26.58,29.41 -43.9,39.87 -17.33,10.44 -41.52,22.85 -72.58,37.18 -35.84,17.32 -64.51,32.85 -86.01,46.6 -21.51,13.73 -39.88,32.09 -55.11,55.1 -15.22,22.98 -22.84,51.81 -22.84,86.46 0,50.17 16.12,89.6 48.38,118.27 32.25,28.67 76.16,43.01 131.71,43.01 29.26,0 57.34,-3.74 84.22,-11.2 26.88,-7.48 48.68,-16.89 65.41,-28.23 0,-53.17 1.79,-92.59 5.38,-118.27 -13.15,-5.37 -29.88,-8.06 -50.18,-8.06 -8.37,48.97 -20.92,82.28 -37.64,99.9 -16.72,17.61 -39.41,26.43 -68.08,26.43 -31.67,0 -56.46,-7.77 -74.38,-23.29 -17.92,-15.55 -26.87,-37.34 -26.87,-65.41 0,-23.29 6.11,-43.32 18.37,-60.03 12.23,-16.73 27.16,-30.47 44.79,-41.22 17.62,-10.75 41.96,-23.89 73.03,-39.42 35.23,-16.73 63.46,-31.96 84.67,-45.7 21.19,-13.74 39.26,-31.66 54.21,-53.75 14.92,-22.11 22.4,-49.28 22.4,-81.54 0,-31.06 -7.33,-59.59 -21.95,-85.57 -14.65,-25.98 -37.35,-46.89 -68.1,-62.71 -30.77,-15.82 -68.86,-23.75 -114.24,-23.75 -34.65,0 -65.71,4.64 -93.18,13.89"
         style="fill:#172842;fill-opacity:1;fill-rule:nonzero;stroke:none"
         id="path20" />
      <path
         d="m 3181.29,164.719 h -26.95 V 2206.24 h 26.95 V 164.719"
         style="fill:#a4a6a9;fill-opacity:1;fill-rule:nonzero;stroke:none"
         id="path22" />
      <path
         d="m 3965.41,456.238 c 28.36,21.5 50.02,50.922 64.96,88.262 14.92,37.332 22.4,78.988 22.4,124.98 0,53.168 -9.72,101.84 -29.12,146.059 -19.42,44.191 -46.15,79.133 -80.19,104.82 -34.05,25.68 -71.99,38.532 -113.79,38.532 -35.25,0 -66.91,-10.161 -94.98,-30.461 -28.08,-20.321 -50.03,-48.692 -65.85,-85.121 -15.83,-36.45 -23.74,-78.547 -23.74,-126.34 0,-51.367 8.8,-99.449 26.43,-144.25 17.61,-44.797 43.14,-80.797 76.6,-107.957 33.45,-27.192 72.87,-40.774 118.27,-40.774 37.63,0 70.63,10.75 99.01,32.25 z m -271.03,-35.386 c -44.8,27.179 -79.61,64.507 -104.38,112 -24.8,47.488 -37.19,100.789 -37.19,159.929 0,59.731 12.99,113.028 38.98,159.93 25.98,46.891 61.51,83.469 106.62,109.769 45.09,26.27 95.11,39.42 150.07,39.42 56.74,0 107.66,-12.99 152.77,-38.978 45.09,-25.981 80.33,-62.422 105.72,-109.313 25.38,-46.898 38.08,-100.5 38.08,-160.828 0,-58.543 -12.7,-111.543 -38.08,-159.043 -25.39,-47.476 -60.63,-84.968 -105.72,-112.437 -45.11,-27.481 -96.03,-41.211 -152.77,-41.211 -57.94,0 -109.31,13.57 -154.1,40.762"
         style="fill:#172842;fill-opacity:1;fill-rule:nonzero;stroke:none"
         id="path24" />
      <path
         d="m 4720.13,504.629 c -7.17,-29.277 -20.61,-53.758 -40.32,-73.469 -34.04,-34.051 -82.43,-51.07 -145.15,-51.07 -80.05,0 -136.64,17.609 -169.79,52.859 -33.15,35.231 -49.73,89.289 -49.73,162.18 v 284.91 c 0,21.512 -1.34,37.332 -4.03,47.492 -2.69,10.149 -7.61,17.321 -14.78,21.5 -7.16,4.18 -18.52,7.168 -34.05,8.957 -3,10.75 -4.48,23.59 -4.48,38.532 23.88,-1.79 58.53,-2.688 103.93,-2.688 42.42,0 77.06,0.898 103.94,2.688 0,-14.942 -1.5,-27.782 -4.48,-38.532 -19.12,-1.789 -32.7,-4.629 -40.77,-8.508 -8.06,-3.89 -13.59,-10.75 -16.58,-20.601 -2.99,-9.859 -4.47,-26.141 -4.47,-48.84 V 607.672 c 0,-56.16 11.49,-100.223 34.49,-132.16 22.99,-31.973 62.28,-47.942 117.82,-47.942 16.72,0 33.9,2.828 51.53,8.508 17.61,5.672 32.1,14.184 43.45,25.543 14.33,14.34 24.33,33 30.01,56 5.67,22.988 8.52,57.789 8.52,104.379 v 222.211 c 0,30.461 -1.5,53.148 -4.48,68.09 -3,14.918 -8.82,25.828 -17.47,32.699 -8.67,6.859 -21.96,11.199 -39.88,12.988 -2.99,14.934 -4.48,27.782 -4.48,38.532 20.3,-1.79 48.39,-2.688 84.22,-2.688 33.45,0 61.83,0.898 85.13,2.688 0,-8.961 -1.51,-21.809 -4.48,-38.532 -14.34,-1.789 -25.25,-5.968 -32.71,-12.539 -7.48,-6.578 -12.7,-17.777 -15.68,-33.597 -2.99,-15.832 -4.48,-38.391 -4.48,-67.641 V 629.172 c 0,-53.762 -3.58,-95.281 -10.75,-124.543"
         style="fill:#172842;fill-opacity:1;fill-rule:nonzero;stroke:none"
         id="path26" />
      <path
         d="m 5399.14,964.27 c 0,-23.899 2.09,-60.93 6.27,-111.11 -12.54,-5.969 -27.49,-8.66 -44.8,-8.051 -1.2,35.832 -9.85,63 -25.99,81.532 -16.12,18.5 -41.21,27.769 -75.26,27.769 h -47.48 V 501.941 c 0,-20.91 1.79,-36.601 5.37,-47.043 3.58,-10.457 10.3,-17.918 20.17,-22.398 9.85,-4.48 24.64,-7.309 44.34,-8.512 2.98,-8.379 4.49,-21.207 4.49,-38.527 -38.24,1.801 -77.37,2.687 -117.38,2.687 -44.8,0 -83.92,-0.886 -117.37,-2.687 0,17.32 1.48,30.148 4.48,38.527 19.71,1.203 34.63,4.032 44.8,8.512 10.14,4.48 17.15,12.102 21.05,22.84 3.88,10.762 5.82,26.289 5.82,46.601 V 954.41 h -45.69 c -27.48,0 -48.69,-4.34 -63.62,-12.988 -14.94,-8.672 -25.53,-20.32 -31.8,-34.953 -6.27,-14.637 -11.81,-35.09 -16.57,-61.36 -19.72,0 -34.06,2.672 -43.01,8.051 9.54,53.762 14.33,101.539 14.33,143.36 33.44,-1.79 109.6,-2.688 228.48,-2.688 120.65,0 197.4,0.898 230.26,2.688 l -0.89,-32.25"
         style="fill:#172842;fill-opacity:1;fill-rule:nonzero;stroke:none"
         id="path28" />
      <path
         d="m 5954.96,488.949 c 43.89,40.321 65.85,108.262 65.85,203.832 0,61.52 -12.09,112.438 -36.29,152.77 -24.19,40.32 -56,69.73 -95.42,88.25 -39.43,18.508 -83.03,27.777 -130.81,27.777 -10.76,0 -22.56,-0.758 -35.39,-2.238 -12.86,-1.5 -23.16,-3.449 -30.92,-5.82 V 511.801 c 0,-23.289 2.09,-40.641 6.28,-51.973 4.17,-11.348 11.94,-19.418 23.29,-24.199 11.34,-4.777 28.37,-7.16 51.07,-7.16 77.64,0 138.43,20.152 182.34,60.48 z m 61.81,445.301 c 64.21,-40.922 96.32,-116.93 96.32,-228.031 0,-126.028 -35.99,-210.547 -107.96,-253.547 -71.99,-43.012 -149.49,-64.524 -232.51,-64.524 -109.91,0 -187.26,-0.886 -232.06,-2.687 0,17.32 1.49,30.148 4.48,38.527 16.71,1.203 29.42,4.16 38.08,8.961 8.65,4.77 14.92,13.289 18.82,25.539 3.88,12.223 5.82,30.024 5.82,53.313 v 368.238 c 0,29.871 -4.34,50.02 -12.99,60.481 -8.67,10.449 -24.95,16.269 -48.84,17.468 -2.99,8.364 -4.47,21.203 -4.47,38.532 27.46,-1.79 69.28,-2.688 125.43,-2.688 l 52.87,0.898 c 11.93,0.59 29.56,0.891 52.86,0.891 98.56,0 179.93,-20.461 244.15,-61.371"
         style="fill:#172842;fill-opacity:1;fill-rule:nonzero;stroke:none"
         id="path30" />
      <path
         d="m 6650.08,456.238 c 28.37,21.5 50.03,50.922 64.96,88.262 14.93,37.332 22.41,78.988 22.41,124.98 0,53.168 -9.72,101.84 -29.12,146.059 -19.42,44.191 -46.15,79.133 -80.19,104.82 -34.05,25.68 -71.99,38.532 -113.79,38.532 -35.25,0 -66.91,-10.161 -94.98,-30.461 -28.09,-20.321 -50.03,-48.692 -65.85,-85.121 -15.84,-36.45 -23.75,-78.547 -23.75,-126.34 0,-51.367 8.81,-99.449 26.44,-144.25 17.6,-44.797 43.14,-80.797 76.6,-107.957 33.44,-27.192 72.87,-40.774 118.27,-40.774 37.64,0 70.63,10.75 99,32.25 z m -271.03,-35.386 c -44.8,27.179 -79.6,64.507 -104.38,112 -24.79,47.488 -37.18,100.789 -37.18,159.929 0,59.731 12.99,113.028 38.97,159.93 25.99,46.891 61.51,83.469 106.62,109.769 45.1,26.27 95.12,39.42 150.08,39.42 56.74,0 107.66,-12.99 152.76,-38.978 45.1,-25.981 80.33,-62.422 105.74,-109.313 25.38,-46.898 38.07,-100.5 38.07,-160.828 0,-58.543 -12.69,-111.543 -38.07,-159.043 -25.41,-47.476 -60.64,-84.968 -105.74,-112.437 -45.1,-27.481 -96.02,-41.211 -152.76,-41.211 -57.94,0 -109.31,13.57 -154.11,40.762"
         style="fill:#172842;fill-opacity:1;fill-rule:nonzero;stroke:none"
         id="path32" />
      <path
         d="m 7357.77,456.238 c 28.37,21.5 50.03,50.922 64.96,88.262 14.92,37.332 22.4,78.988 22.4,124.98 0,53.168 -9.71,101.84 -29.12,146.059 -19.41,44.191 -46.14,79.133 -80.18,104.82 -34.06,25.68 -72,38.532 -113.79,38.532 -35.26,0 -66.92,-10.161 -94.98,-30.461 -28.09,-20.321 -50.03,-48.692 -65.85,-85.121 -15.84,-36.45 -23.75,-78.547 -23.75,-126.34 0,-51.367 8.8,-99.449 26.43,-144.25 17.61,-44.797 43.15,-80.797 76.6,-107.957 33.45,-27.192 72.87,-40.774 118.27,-40.774 37.64,0 70.64,10.75 99.01,32.25 z m -271.04,-35.386 c -44.79,27.179 -79.6,64.507 -104.37,112 -24.8,47.488 -37.19,100.789 -37.19,159.929 0,59.731 13,113.028 38.98,159.93 25.98,46.891 61.51,83.469 106.62,109.769 45.09,26.27 95.11,39.42 150.07,39.42 56.74,0 107.66,-12.99 152.77,-38.978 45.1,-25.981 80.33,-62.422 105.73,-109.313 25.38,-46.898 38.08,-100.5 38.08,-160.828 0,-58.543 -12.7,-111.543 -38.08,-159.043 -25.4,-47.476 -60.63,-84.968 -105.73,-112.437 -45.11,-27.481 -96.03,-41.211 -152.77,-41.211 -57.93,0 -109.3,13.57 -154.11,40.762"
         style="fill:#172842;fill-opacity:1;fill-rule:nonzero;stroke:none"
         id="path34" />
      <path
         d="m 7825.79,702.641 c 51.96,0 94.07,11.199 126.32,33.597 32.26,22.403 48.39,55.684 48.39,99.903 0,37.629 -11.8,67.039 -35.39,88.25 -23.6,21.199 -61.08,31.808 -112.45,31.808 -21.5,0 -43.61,-2.39 -66.3,-7.168 V 705.32 c 14.34,-1.789 27.46,-2.679 39.43,-2.679 z m 263.41,-241.02 c 9.55,-11.359 20.75,-19.723 33.6,-25.09 12.84,-5.371 30.31,-8.672 52.42,-9.859 0,-17.32 -1.21,-30.16 -3.58,-38.524 -60.93,0 -107.84,-2.687 -140.68,-8.058 -22.7,36.422 -42.71,71.68 -60.03,105.719 l -10.75,19.711 c -18.52,33.449 -35.39,61.378 -50.62,83.781 -15.24,22.398 -35.39,47.039 -60.48,73.91 l -27.78,-0.902 c -8.96,0 -20.6,0.601 -34.94,1.8 V 501.941 c 0,-29.882 4.04,-50.043 12.09,-60.492 8.07,-10.437 23.75,-16.258 47.04,-17.461 2.98,-8.957 4.49,-21.808 4.49,-38.527 -25.7,1.801 -61.24,2.687 -106.63,2.687 -44.8,0 -80.64,-0.886 -107.52,-2.687 0,16.129 1.49,28.961 4.49,38.527 24.48,1.203 40.91,7.024 49.27,17.461 8.36,10.449 12.54,30.61 12.54,60.492 v 378.098 c 0,29.871 -4.33,50.32 -12.98,61.383 -8.67,11.047 -24.96,16.566 -48.83,16.566 -3,9.551 -4.49,22.102 -4.49,37.633 23.89,-1.199 59.73,-1.789 107.52,-1.789 32.85,0 57.64,0.297 74.37,0.898 l 75.26,0.891 c 64.52,0 113.19,-13.883 146.05,-41.66 32.84,-27.77 49.28,-64.063 49.28,-108.852 0,-39.437 -13.31,-73.48 -39.88,-102.148 -26.58,-28.672 -63.47,-48.992 -110.65,-60.93 20.91,-22.101 38.52,-43.761 52.86,-64.953 14.34,-21.207 35.54,-55.707 63.61,-103.5 13.74,-23.289 25.39,-40.617 34.95,-51.957"
         style="fill:#172842;fill-opacity:1;fill-rule:nonzero;stroke:none"
         id="path36" />
      <path
         d="m 1017.94,1119.16 c -193.436,0 -354.03,-2.45 -481.772,-7.3 L 486.895,985.949 c -19.477,-51.097 -29.2,-91.25 -29.2,-120.449 0,-24.352 7.582,-42.289 22.813,-53.828 15.195,-11.582 39.234,-18.563 72.082,-20.992 7.176,-17.469 11.148,-39.071 12.277,-64.321 h 455.163 c 1.02,28.18 5.18,49.653 12.51,64.321 34.05,3.652 58.09,9.121 72.08,16.422 13.98,7.296 21,19.449 21,36.5 0,14.597 -9.13,44.398 -27.38,89.429 l -80.3,186.129"
         style="fill:#172842;fill-opacity:1;fill-rule:nonzero;stroke:none"
         id="path38" />
      <path
         d="m 764.281,1725.04 c -13.402,-41.38 -36.5,-107.07 -69.347,-197.09 L 569.016,1201.29 H 983.27 l -138.696,324.83 c -36.5,83.95 -63.269,150.24 -80.293,198.92"
         style="fill:#172842;fill-opacity:1;fill-rule:nonzero;stroke:none"
         id="path40" />
      <path
         d="m 851.43,1954.92 431.12,-989.049 c 30.4,-68.152 54.44,-113.141 72.09,-135.043 17.62,-21.887 40.43,-35.297 68.43,-40.148 6.05,-20.168 9.44,-41.66 10.48,-64.321 h 28.68 V 1954.92 h -610.8"
         style="fill:#172842;fill-opacity:1;fill-rule:nonzero;stroke:none"
         id="path42" />
      <path
         d="m 253.305,788.859 c 31.621,6.071 56.574,21.891 74.82,47.442 18.254,25.558 41.973,75.418 71.172,149.648 L 777.035,1954.92 H 215.145 V 726.359 h 25.906 c 1.144,24.172 5.105,45.141 12.254,62.5"
         style="fill:#172842;fill-opacity:1;fill-rule:nonzero;stroke:none"
         id="path44" />
      <path
         d="m 2371.11,856.379 c 57.78,43.801 101.89,103.703 132.31,179.751 30.4,76.02 45.62,160.88 45.62,254.58 0,108.26 -19.79,207.41 -59.31,297.46 -39.54,90.02 -93.98,161.19 -163.32,213.51 -69.35,52.3 -146.62,78.48 -231.77,78.48 -71.8,0 -136.27,-20.71 -193.44,-62.05 -57.2,-41.38 -101.91,-99.18 -134.13,-173.37 -32.25,-74.22 -48.36,-159.99 -48.36,-257.31 0,-104.65 17.94,-202.57 53.83,-293.81 35.87,-91.25 87.88,-164.561 156.03,-219.901 68.12,-55.379 148.42,-83.039 240.89,-83.039 76.65,0 143.86,21.91 201.65,65.699 z m -552.03,-72.078 c -91.25,55.34 -162.13,131.39 -212.61,228.109 -50.49,96.72 -75.73,205.3 -75.73,325.74 0,121.65 26.46,230.23 79.39,325.75 52.92,95.5 125.29,170.01 217.16,223.56 91.85,53.52 193.73,80.29 305.67,80.29 115.57,0 219.28,-26.46 311.15,-79.38 91.85,-52.92 163.61,-127.15 215.34,-222.64 51.7,-95.53 77.56,-204.71 77.56,-327.58 0,-119.24 -25.86,-227.2 -77.56,-323.92 -51.73,-96.718 -123.49,-173.082 -215.34,-229.031 -91.87,-55.969 -195.58,-83.937 -311.15,-83.937 -118.02,0 -222.64,27.66 -313.88,83.039"
         style="fill:#172842;fill-opacity:1;fill-rule:nonzero;stroke:none"
         id="path46" />
      <path
         d="m 852.445,365.238 c -114.324,35.133 -190.429,57.992 -228.312,68.614 -127.617,33.796 -225.996,50.707 -295.117,50.707 -81.754,0 -149.227,-15.25 -202.395,-45.739 -65.8046,-37.789 -98.7069,-94.121 -98.7069,-169.039 0,-40.429 24.582,-75.562 73.7809,-105.402 53.836,-31.809 123.625,-47.731 209.375,-47.731 104.34,0 205.039,24.864 302.094,74.571 73.109,38.461 152.871,96.472 239.281,174.019 z M 1544.38,264.211 c -33.25,-21.262 -59.17,-33.902 -77.77,-37.879 -11.97,-2.652 -38.23,-4.004 -78.76,-4.004 -47.21,0 -98.06,7.332 -152.55,21.942 -10.64,2.671 -64.15,19.289 -160.52,49.859 l -188.432,59.82 C 797.27,272.191 711.871,211.039 630.113,170.5 517.109,114 394.82,85.75 263.215,85.75 186.098,85.75 123.953,100.699 76.7695,130.609 25.5938,163.191 0,209.371 0,269.199 c 0,75.77 41.2031,138.582 123.629,188.442 71.785,43.859 147.215,65.808 226.32,65.808 98.367,0 211.028,-18.301 337.989,-54.847 67.128,-21.282 134.601,-42.872 202.394,-64.801 25.922,25.918 58.152,64.461 96.715,115.648 85.743,114.992 132.603,177.473 140.573,187.442 39.22,50.5 83.41,102.359 132.61,155.539 61.14,65.129 99.35,97.711 114.65,97.711 3.99,0 5.32,-6.332 3.99,-18.942 -1.99,-14.629 -6.98,-35.57 -14.95,-62.82 -13.3,6.641 -24.29,9.973 -32.92,9.973 -13.97,0 -42.23,-23.614 -84.78,-70.852 -33.91,-36.609 -67.83,-77.199 -101.72,-121.77 -15.3,-21.289 -55.54,-78.839 -120.69,-172.628 C 980.598,460.559 947.355,418.301 924.078,396.359 L 1104.68,336.93 c 166.17,-55.789 285.49,-83.68 357.94,-83.68 19.94,0 33.9,1.211 41.88,3.621 7.97,2.461 21.26,9.551 39.88,21.301 1.99,-2.652 4.31,-4.981 6.98,-6.981 0.65,-1.32 -1.67,-3.64 -6.98,-6.98"
         style="fill:#d0a316;fill-opacity:1;fill-rule:nonzero;stroke:none"
         id="path48" />
      <path
         d="m 1393.82,605.199 c 0,-17.301 -11.96,-25.929 -35.9,-25.929 -23.92,0 -35.88,8.628 -35.88,25.929 0,17.942 11.96,26.922 35.88,26.922 23.94,0 35.9,-8.98 35.9,-26.922 z m 150.55,-68.801 c 0,-3.988 -1.34,-7.32 -3.99,-9.957 -66.47,-55.839 -108.02,-89.742 -124.63,-101.703 -54.5,-39.886 -95.71,-59.828 -123.63,-59.828 -17.95,0 -34.4,5.16 -49.35,15.449 -14.95,10.301 -22.43,22.442 -22.43,36.403 0,23.258 11.96,50.179 35.89,80.758 22.59,28.558 41.53,44.519 56.83,47.859 7.98,0 11.96,-2.68 11.96,-7.988 0,-4.653 -9.47,-18.282 -28.41,-40.879 -18.94,-22.59 -28.42,-43.532 -28.42,-62.813 0,-25.258 11.3,-37.879 33.9,-37.879 27.25,0 104.69,48.18 232.31,144.571 1.99,1.32 3.99,1.648 5.98,1 2.65,-0.68 3.99,-2.34 3.99,-4.993"
         style="fill:#d0a316;fill-opacity:1;fill-rule:nonzero;stroke:none"
         id="path50" />
      <path
         d="m 1667.99,518.461 c 0,17.937 -5.66,26.918 -16.95,26.918 -21.28,0 -31.9,-12.969 -31.9,-38.891 0,-19.937 4.31,-37.226 12.95,-51.847 15.29,17.949 23.59,27.929 24.93,29.918 7.31,10.632 10.97,21.929 10.97,33.902 z m 255.24,19.867 c 0,-4.039 -1.35,-7.726 -3.99,-11.098 -21.28,-24.941 -51.85,-51.851 -91.73,-80.789 -55.18,-39.73 -101.37,-59.589 -138.58,-59.589 -17.95,0 -38.56,12.609 -61.82,37.886 -47.2,-47.187 -86.41,-70.789 -117.65,-70.789 -13.96,0 -25.92,4.16 -35.89,12.461 -9.97,8.32 -14.96,19.102 -14.96,32.41 0,31.231 22.61,77.09 67.8,137.578 3.32,4.641 9.3,6.981 17.95,6.981 5.31,0 7.97,-1.668 7.97,-4.988 0,-1.332 -0.34,-2.661 -0.99,-3.993 -5.33,0 -16.45,-14.789 -33.4,-44.359 -16.95,-29.578 -25.43,-52.019 -25.43,-67.301 0,-25.269 11.63,-37.886 34.9,-37.886 18.6,0 48.19,18.269 88.73,54.847 -11.31,15.27 -16.95,36.211 -16.95,62.813 0,15.949 4.49,29.898 13.47,41.867 8.97,11.961 20.44,17.941 34.39,17.941 23.93,0 35.89,-13.629 35.89,-40.871 0,-29.918 -12.63,-57.828 -37.88,-83.75 16.61,-21.277 32.23,-31.91 46.86,-31.91 27.91,0 66.8,16.191 116.65,48.563 46.52,30.347 81.41,59.699 104.69,88.019 1.32,1.988 3.31,2.34 5.98,1.008 2.64,-0.68 3.99,-2.367 3.99,-5.051"
         style="fill:#d0a316;fill-opacity:1;fill-rule:nonzero;stroke:none"
         id="path52" />
      <path
         d="m 1998.99,605.199 c 0,-17.301 -11.96,-25.929 -35.89,-25.929 -23.93,0 -35.89,8.628 -35.89,25.929 0,17.942 11.96,26.922 35.89,26.922 23.93,0 35.89,-8.98 35.89,-26.922 z m 150.55,-68.801 c 0,-3.988 -1.34,-7.32 -3.99,-9.957 -66.47,-55.839 -108.02,-89.742 -124.63,-101.703 -54.5,-39.886 -95.71,-59.828 -123.63,-59.828 -17.94,0 -34.39,5.16 -49.35,15.449 -14.95,10.301 -22.43,22.442 -22.43,36.403 0,23.258 11.96,50.179 35.89,80.758 22.59,28.558 41.53,44.519 56.83,47.859 7.98,0 11.97,-2.68 11.97,-7.988 0,-4.653 -9.48,-18.282 -28.42,-40.879 -18.94,-22.59 -28.42,-43.532 -28.42,-62.813 0,-25.258 11.3,-37.879 33.91,-37.879 27.24,0 104.68,48.18 232.3,144.571 1.99,1.32 3.99,1.648 5.98,1 2.65,-0.68 3.99,-2.34 3.99,-4.993"
         style="fill:#d0a316;fill-opacity:1;fill-rule:nonzero;stroke:none"
         id="path54" />
      <path
         d="m 2581.24,536.398 c 0,-3.988 -1.34,-7.32 -3.99,-9.957 -60.49,-50.531 -102.04,-83.429 -124.63,-98.722 -56.5,-37.891 -105.03,-56.828 -145.56,-56.828 -35.24,0 -52.84,18.609 -52.84,55.839 0,14.61 3.31,34.899 9.96,60.821 -46.52,-26.59 -95.38,-56.172 -146.55,-88.731 -36.55,-23.941 -56.17,-35.898 -58.83,-35.898 -1.32,0 -3.81,1.34 -7.48,3.976 -3.64,2.672 -5.48,4.672 -5.48,5.993 0,8.64 11.64,29.238 34.9,61.82 26.59,37.879 41.87,61.141 45.86,69.789 -2,4.641 -2.99,9.961 -2.99,15.949 0,5.313 3.99,10.621 11.96,15.949 7.98,5.313 14.62,7.981 19.94,7.981 21.27,0 31.91,-7.981 31.91,-23.93 0,-5.32 -9.97,-20.937 -29.92,-46.871 -17.94,-23.269 -31.57,-39.547 -40.87,-48.84 117.65,79.762 193.08,119.641 226.32,119.641 4.64,0 6.98,-3.988 6.98,-11.969 0,-1.34 -9.47,-12.801 -28.42,-34.39 -18.94,-21.61 -28.41,-42.379 -28.41,-62.321 0,-22.597 15.67,-33.89 47.02,-33.89 24.67,0 63.7,18.273 117.05,54.832 10.67,6.629 48.7,34.55 114.07,83.75 1.99,1.32 3.98,1.648 6,1 2.66,-0.68 4,-2.34 4,-4.993"
         style="fill:#d0a316;fill-opacity:1;fill-rule:nonzero;stroke:none"
         id="path56" />
      <path
         d="m 2632.08,341.98 c -57.82,-16.601 -115.98,-33.23 -174.47,-49.851 -100.36,-29.238 -178.12,-58.488 -233.3,-87.75 -78.43,-41.188 -117.65,-83.059 -117.65,-125.6173 0,-15.9531 8.64,-29.5625 25.92,-40.8828 15.3,-9.3008 31.58,-13.9375 48.86,-13.9375 19.94,0 47.85,7.3086 83.75,21.9297 38.55,15.2891 73.45,34.2383 104.68,56.8279 126.97,91.723 214.36,171.492 262.21,239.281 z m 320.05,194.418 c 0,-3.988 -1.34,-7.32 -3.99,-9.957 -65.74,-55.191 -101.59,-84.75 -107.55,-88.742 -47.14,-34.578 -100.26,-61.82 -159.34,-81.758 C 2638.09,300.109 2566.7,233.969 2467.13,157.531 2330.37,52.5117 2222.49,0 2143.47,0 c -20.58,0 -37.67,5.48047 -51.3,16.4492 -13.6,10.961 -20.41,24.7696 -20.41,41.3711 0,73.7887 79.64,140.9297 238.91,201.4097 36.52,13.961 98.24,34.239 185.17,60.821 86.92,26.59 137.37,42.539 151.31,47.847 44.46,47.864 66.69,93.731 66.69,137.602 0,29.898 -17.18,44.859 -51.53,44.859 -26.42,0 -51.21,-6.66 -74.33,-19.937 -25.11,-13.973 -37.65,-30.25 -37.65,-48.852 0,-25.269 10.3,-37.89 30.91,-37.89 15.28,0 36.55,6.629 63.81,19.941 15.28,7.969 30.57,15.949 45.86,23.93 l -7.01,-12.973 c -17.39,-10.629 -34.75,-21.269 -52.12,-31.887 -28.75,-15.961 -55.13,-23.941 -79.19,-23.941 -14.7,0 -26.39,4.641 -35.1,13.949 -8.68,9.313 -13.02,20.942 -13.02,34.91 0,22.59 19.19,45.371 57.56,68.301 38.37,22.93 74.25,34.391 107.62,34.391 24.67,0 44.69,-6.332 60.05,-18.942 15.34,-12.64 23.02,-29.257 23.02,-49.859 0,-27.922 -15.62,-65.801 -46.86,-113.66 41.04,13.289 119.82,64.14 236.35,152.551 1.97,1.32 3.95,1.648 5.95,1 2.65,-0.68 3.97,-2.34 3.97,-4.993"
         style="fill:#d0a316;fill-opacity:1;fill-rule:nonzero;stroke:none"
         id="path58" />
      <path
         d="M 111.711,724.18 H 84.7578 V 1958.09 H 111.711 V 724.18"
         style="fill:#d0a316;fill-opacity:1;fill-rule:nonzero;stroke:none"
         id="path60" />
    </g>
  </g>
</svg>
