<?xml version="1.0" encoding="UTF-8" standalone="no"?>
<!-- Created with Inkscape (http://www.inkscape.org/) -->

<svg
   version="1.1"
   id="svg2"
   width="408.58667"
   height="303.69333"
   viewBox="0 0 408.58667 303.69333"
   sodipodi:docname="ATLAS_COMMERCIALRESIDENTIAL_LOGO_ou.eps"
   xmlns:inkscape="http://www.inkscape.org/namespaces/inkscape"
   xmlns:sodipodi="http://sodipodi.sourceforge.net/DTD/sodipodi-0.dtd"
   xmlns="http://www.w3.org/2000/svg"
   xmlns:svg="http://www.w3.org/2000/svg">
  <defs
     id="defs6" />
  <sodipodi:namedview
     id="namedview4"
     pagecolor="#ffffff"
     bordercolor="#000000"
     borderopacity="0.25"
     inkscape:showpageshadow="2"
     inkscape:pageopacity="0.0"
     inkscape:pagecheckerboard="0"
     inkscape:deskcolor="#d1d1d1" />
  <g
     id="g8"
     inkscape:groupmode="layer"
     inkscape:label="ink_ext_XXXXXX"
     transform="matrix(1.3333333,0,0,-1.3333333,0,303.69333)">
    <g
       id="g10"
       transform="scale(0.1)">
      <path
         d="m 2850.34,1230.74 c 0,-460.521 -591.82,-833.912 -1321.95,-833.912 -730.109,0 -1321.968,373.391 -1321.968,833.912 0,460.6 591.859,833.94 1321.968,833.94 730.13,0 1321.95,-373.34 1321.95,-833.94"
         style="fill:#162942;fill-opacity:1;fill-rule:nonzero;stroke:none"
         id="path12" />
      <path
         d="M 340.637,1679.17 622.078,1915.09 2852.9,942.449 2612.87,644.469 340.637,1679.17"
         style="fill:#ffffff;fill-opacity:1;fill-rule:nonzero;stroke:none"
         id="path14" />
      <path
         d="m 2963.39,1230.74 c 0,-522.459 -640.82,-945.978 -1431.24,-945.978 -790.416,0 -1431.177,423.519 -1431.177,945.978 0,522.45 640.761,945.97 1431.177,945.97 790.42,0 1431.24,-423.52 1431.24,-945.97 z"
         style="fill:none;stroke:#631518;stroke-width:201.947;stroke-linecap:butt;stroke-linejoin:miter;stroke-miterlimit:4;stroke-dasharray:none;stroke-opacity:1"
         id="path16" />
      <path
         d="m 2852.81,1231.7 c 0,-462.059 -591.85,-836.688 -1321.92,-836.688 -730.093,0 -1321.921,374.629 -1321.921,836.688 0,462.12 591.828,836.7 1321.921,836.7 730.07,0 1321.92,-374.58 1321.92,-836.7 z"
         style="fill:none;stroke:#b99505;stroke-width:20.131;stroke-linecap:butt;stroke-linejoin:miter;stroke-miterlimit:4;stroke-dasharray:none;stroke-opacity:1"
         id="path18" />
      <g
         id="g20"
         transform="scale(10)">
        <g
           aria-label="E"
           transform="matrix(0.910087,0.414418,0.414418,-0.910087,68.9984,190.919)"
           id="text24"
           style="font-weight:bold;font-size:21px;font-family:Athelas;-inkscape-font-specification:Athelas-Bold;fill:#b99505">
          <path
             d="M 1.9277344,-15.309082 H 12.581543 v 2.983887 H 5.8754883 v 2.8505856 h 6.3061527 v 2.9838867 H 5.8754883 v 3.506836 H 12.807129 V 0 H 1.9277344 Z"
             id="path142" />
        </g>
        <g
           aria-label="X"
           transform="matrix(0.943384,0.331704,0.331704,-0.943384,81.4652,196.578)"
           id="text28"
           style="font-weight:bold;font-size:21px;font-family:Athelas;-inkscape-font-specification:Athelas-Bold;fill:#b99505">
          <path
             d="M 10.458984,-7.8134766 15.770508,0 H 11.658691 L 8.0800781,-5.2294922 4.5322266,0 H 0.39990234 L 5.7114258,-7.8134766 0.60498047,-15.309082 H 4.7270508 l 3.3530273,4.932129 3.3427739,-4.932129 h 4.142578 z"
             id="path145" />
        </g>
        <g
           aria-label="C"
           transform="matrix(0.966657,0.256076,0.256076,-0.966657,94.9301,201.299)"
           id="text32"
           style="font-weight:bold;font-size:21px;font-family:Athelas;-inkscape-font-specification:Athelas-Bold;fill:#b99505">
          <path
             d="m 14.068359,-0.84082031 q -1.086914,0.56396484 -2.266113,0.85107422 -1.179199,0.28710937 -2.4609374,0.28710937 -3.824707,0 -6.0600586,-2.13281248 -2.2353516,-2.1430664 -2.2353516,-5.803711 0,-3.6708988 2.2353516,-5.8037108 2.2353516,-2.143067 6.0600586,-2.143067 1.2817384,0 2.4609374,0.28711 1.179199,0.287109 2.266113,0.851074 v 3.168457 q -1.097168,-0.748535 -2.163574,-1.097168 -1.066406,-0.348633 -2.2456053,-0.348633 -2.1123047,0 -3.3222656,1.353516 -1.209961,1.353516 -1.209961,3.7324218 0,2.3686524 1.209961,3.722168 1.2099609,1.3535156 3.3222656,1.3535156 1.1791993,0 2.2456053,-0.3486328 1.066406,-0.3486328 2.163574,-1.0971679 z"
             id="path148" />
        </g>
        <g
           aria-label="E"
           transform="matrix(0.983243,0.182299,0.182299,-0.983243,109.292,205.039)"
           id="text36"
           style="font-weight:bold;font-size:21px;font-family:Athelas;-inkscape-font-specification:Athelas-Bold;fill:#b99505">
          <path
             d="M 1.9277344,-15.309082 H 12.581543 v 2.983887 H 5.8754883 v 2.8505856 h 6.3061527 v 2.9838867 H 5.8754883 v 3.506836 H 12.807129 V 0 H 1.9277344 Z"
             id="path151" />
        </g>
        <g
           aria-label="L"
           transform="matrix(0.993281,0.115725,0.115725,-0.993281,122.814,207.495)"
           id="text40"
           style="font-weight:bold;font-size:21px;font-family:Athelas;-inkscape-font-specification:Athelas-Bold;fill:#b99505">
          <path
             d="M 1.9277344,-15.309082 H 5.8754883 V -2.9838867 H 12.807129 V 0 H 1.9277344 Z"
             id="path154" />
        </g>
        <g
           aria-label="L"
           transform="matrix(0.9986,0.0528943,0.0528943,-0.9986,135.692,208.962)"
           id="text44"
           style="font-weight:bold;font-size:21px;font-family:Athelas;-inkscape-font-specification:Athelas-Bold;fill:#b99505">
          <path
             d="M 1.9277344,-15.309082 H 5.8754883 V -2.9838867 H 12.807129 V 0 H 1.9277344 Z"
             id="path157" />
        </g>
        <g
           aria-label="E"
           transform="matrix(0.999946,-0.0104335,-0.0104335,-0.999946,148.652,209.627)"
           id="text48"
           style="font-weight:bold;font-size:21px;font-family:Athelas;-inkscape-font-specification:Athelas-Bold;fill:#b99505">
          <path
             d="M 1.9277344,-15.309082 H 12.581543 v 2.983887 H 5.8754883 v 2.8505856 h 6.3061527 v 2.9838867 H 5.8754883 v 3.506836 H 12.807129 V 0 H 1.9277344 Z"
             id="path160" />
        </g>
        <g
           aria-label="N"
           transform="matrix(0.996612,-0.0822498,-0.0822498,-0.996612,162.386,209.497)"
           id="text52"
           style="font-weight:bold;font-size:21.0001px;font-family:Athelas;-inkscape-font-specification:Athelas-Bold;fill:#b99505">
          <path
             d="M 1.9277435,-15.309154 H 6.336944 l 5.567897,10.5000493 V -15.309154 h 3.742694 V 0 H 11.238334 L 5.6704369,-10.50005 V 0 H 1.9277435 Z"
             id="path163" />
        </g>
        <g
           aria-label="C"
           transform="matrix(0.987538,-0.157379,-0.157379,-0.987538,178.322,208.134)"
           id="text56"
           style="font-weight:bold;font-size:21px;font-family:Athelas;-inkscape-font-specification:Athelas-Bold;fill:#b99505">
          <path
             d="m 14.068359,-0.84082031 q -1.086914,0.56396484 -2.266113,0.85107422 -1.179199,0.28710937 -2.4609374,0.28710937 -3.824707,0 -6.0600586,-2.13281248 -2.2353516,-2.1430664 -2.2353516,-5.803711 0,-3.6708988 2.2353516,-5.8037108 2.2353516,-2.143067 6.0600586,-2.143067 1.2817384,0 2.4609374,0.28711 1.179199,0.287109 2.266113,0.851074 v 3.168457 q -1.097168,-0.748535 -2.163574,-1.097168 -1.066406,-0.348633 -2.2456053,-0.348633 -2.1123047,0 -3.3222656,1.353516 -1.209961,1.353516 -1.209961,3.7324218 0,2.3686524 1.209961,3.722168 1.2099609,1.3535156 3.3222656,1.3535156 1.1791993,0 2.2456053,-0.3486328 1.066406,-0.3486328 2.163574,-1.0971679 z"
             id="path166" />
        </g>
        <g
           aria-label="E"
           transform="matrix(0.973148,-0.23018,-0.23018,-0.973148,192.955,205.748)"
           id="text60"
           style="font-weight:bold;font-size:21px;font-family:Athelas;-inkscape-font-specification:Athelas-Bold;fill:#b99505">
          <path
             d="M 1.9277344,-15.309082 H 12.581543 v 2.983887 H 5.8754883 v 2.8505856 h 6.3061527 v 2.9838867 H 5.8754883 v 3.506836 H 12.807129 V 0 H 1.9277344 Z"
             id="path169" />
        </g>
        <g
           aria-label="I"
           transform="matrix(0.947815,-0.31882,-0.31882,-0.947815,211.615,200.909)"
           id="text64"
           style="font-weight:bold;font-size:21px;font-family:Athelas;-inkscape-font-specification:Athelas-Bold;fill:#b99505">
          <path
             d="M 1.9277344,-15.309082 H 5.8754883 V 0 H 1.9277344 Z"
             id="path172" />
        </g>
        <g
           aria-label="N"
           transform="matrix(0.921579,-0.38819,-0.38819,-0.921579,219.547,198.364)"
           id="text68"
           style="font-weight:bold;font-size:21px;font-family:Athelas;-inkscape-font-specification:Athelas-Bold;fill:#b99505">
          <path
             d="m 1.9277344,-15.309082 h 4.4091797 l 5.5678709,10.5 v -10.5 h 3.742676 V 0 h -4.40918 L 5.6704102,-10.5 V 0 H 1.9277344 Z"
             id="path175" />
        </g>
        <g
           aria-label="O"
           transform="matrix(0.88728,-0.460217,-0.460434,-0.887694,54.9172,45.577)"
           id="text72"
           style="font-weight:bold;font-size:21.0078px;font-family:Athelas;-inkscape-font-specification:Athelas-Bold;fill:#b99505">
          <path
             d="m 8.9242116,-12.729824 q -1.8053578,0 -2.8003561,1.333503 -0.9949983,1.333503 -0.9949983,3.7543238 0,2.4105628 0.9949983,3.7440657 0.9949983,1.3335029 2.8003561,1.3335029 1.8156154,0 2.8106134,-1.3335029 0.994999,-1.3335029 0.994999,-3.7440657 0,-2.4208208 -0.994999,-3.7543238 -0.994998,-1.333503 -2.8106134,-1.333503 z m 0,-2.861902 q 3.6927774,0 5.7853504,2.113089 2.092574,2.113089 2.092574,5.8366398 0,3.7132926 -2.092574,5.8263817 -2.092573,2.11308922 -5.7853504,2.11308922 -3.6825195,0 -5.785351,-2.11308922 -2.0925737,-2.1130891 -2.0925737,-5.8263817 0,-3.7235508 2.0925737,-5.8366398 2.1028315,-2.113089 5.785351,-2.113089 z"
             id="path178" />
        </g>
        <g
           aria-label="U"
           transform="matrix(0.928778,-0.369363,-0.369537,-0.929216,70.0691,37.8012)"
           id="text76"
           style="font-weight:bold;font-size:21.0086px;font-family:Athelas;-inkscape-font-specification:Athelas-Bold;fill:#b99505">
          <path
             d="m 1.9285238,-15.315352 h 3.9493707 v 9.1810049 q 0,1.8977495 0.6154863,2.7183979 0.6257445,0.8103904 2.0311049,0.8103904 1.4156186,0 2.0311053,-0.8103904 0.625744,-0.8206484 0.625744,-2.7183979 v -9.1810049 h 3.949371 v 9.1810049 q 0,3.2518194 -1.631039,4.8418258 -1.631039,1.59000636 -4.9751813,1.59000636 -3.3338843,0 -4.9649231,-1.59000636 -1.6310388,-1.5900064 -1.6310388,-4.8418258 z"
             id="path181" />
        </g>
        <g
           aria-label="T"
           transform="matrix(0.958329,-0.284013,-0.284146,-0.958781,86.457,31.423)"
           id="text80"
           style="font-weight:bold;font-size:21.0092px;font-family:Athelas;-inkscape-font-specification:Athelas-Bold;fill:#b99505">
          <path
             d="M 0.10258398,-15.315788 H 14.21814 v 2.985194 H 9.1402326 V 0 H 5.1907494 V -12.330594 H 0.10258398 Z"
             id="path184" />
        </g>
        <g
           aria-label="D"
           transform="matrix(0.978891,-0.202061,-0.202156,-0.979353,101.546,26.9949)"
           id="text84"
           style="font-weight:bold;font-size:21.0096px;font-family:Athelas;-inkscape-font-specification:Athelas-Bold;fill:#b99505">
          <path
             d="m 5.8781741,-12.33083 v 9.3455793 H 7.29386 q 2.4210281,0 3.693094,-1.2002555 1.282324,-1.2002554 1.282324,-3.4879218 0,-2.2774078 -1.272066,-3.467405 Q 9.7251467,-12.33083 7.29386,-12.33083 Z m -3.9495585,-2.98525 h 4.164989 q 3.4879218,0 5.1908484,0.502671 1.713185,0.492412 2.933958,1.682409 1.077152,1.036118 1.60034,2.390253 0.523189,1.3541339 0.523189,3.067319 0,1.7337023 -0.523189,3.0980953 -0.523188,1.3541343 -1.60034,2.3902523 -1.231032,1.18999682 -2.954475,1.69266791 Q 9.540492,0 6.0936046,0 h -4.164989 z"
             id="path187" />
        </g>
        <g
           aria-label="O"
           transform="matrix(0.99235,-0.119594,-0.11965,-0.992816,118.795,23.5191)"
           id="text88"
           style="font-weight:bold;font-size:21.0098px;font-family:Athelas;-inkscape-font-specification:Athelas-Bold;fill:#b99505">
          <path
             d="m 8.9250615,-12.731036 q -1.8055297,0 -2.8006227,1.33363 -0.9950931,1.33363 -0.9950931,3.7546809 0,2.4107925 0.9950931,3.7444224 0.995093,1.3336299 2.8006227,1.3336299 1.8157885,0 2.8108815,-1.3336299 0.995093,-1.3336299 0.995093,-3.7444224 0,-2.4210509 -0.995093,-3.7546809 -0.995093,-1.33363 -2.8108815,-1.33363 z m 0,-2.862175 q 3.6931285,0 5.7859015,2.113291 2.092773,2.11329 2.092773,5.8371949 0,3.7136463 -2.092773,5.8269367 -2.092773,2.11329045 -5.7859015,2.11329045 -3.6828702,0 -5.7859019,-2.11329045 -2.0927731,-2.1132904 -2.0927731,-5.8269367 0,-3.7239049 2.0927731,-5.8371949 2.1030317,-2.113291 5.7859019,-2.113291 z"
             id="path190" />
        </g>
        <g
           aria-label="O"
           transform="matrix(0.998711,-0.0404168,-0.0404358,-0.999182,136.042,21.5102)"
           id="text92"
           style="font-weight:bold;font-size:21.01px;font-family:Athelas;-inkscape-font-specification:Athelas-Bold;fill:#b99505">
          <path
             d="m 8.9251466,-12.731157 q -1.8055469,0 -2.8006495,1.333642 -0.9951025,1.333643 -0.9951025,3.7547171 0,2.4108154 0.9951025,3.744458 0.9951026,1.3336426 2.8006495,1.3336426 1.8158054,0 2.8109084,-1.3336426 0.995102,-1.3336426 0.995102,-3.744458 0,-2.4210741 -0.995102,-3.7547171 -0.995103,-1.333642 -2.8109084,-1.333642 z m 0,-2.862203 q 3.6931644,0 5.7859574,2.113311 2.092793,2.113311 2.092793,5.8372511 0,3.7136816 -2.092793,5.8269922 -2.092793,2.11331059 -5.7859574,2.11331059 -3.6829053,0 -5.7859571,-2.11331059 -2.092793,-2.1133106 -2.092793,-5.8269922 0,-3.7239401 2.092793,-5.8372511 2.1030518,-2.113311 5.7859571,-2.113311 z"
             id="path193" />
        </g>
        <g
           aria-label="R"
           transform="matrix(0.998935,0.0344506,0.0344668,-0.999406,153.344,20.8941)"
           id="text96"
           style="font-weight:bold;font-size:21.01px;font-family:Athelas;-inkscape-font-specification:Athelas-Bold;fill:#b99505">
          <path
             d="m 7.54021,-8.5250538 q 1.2413135,0 1.7747706,-0.4616455 0.5437158,-0.4616455 0.5437158,-1.5183007 0,-1.046397 -0.5437158,-1.497783 Q 8.7815235,-12.45417 7.54021,-12.45417 H 5.8782862 v 3.9291162 z M 5.8782862,-5.7962159 V 0 H 1.9286524 v -15.316372 h 6.032168 q 3.0263426,0 4.4317966,1.01562 1.415713,1.01562 1.415713,3.211001 0,1.5183007 -0.738633,2.4928857 -0.728374,0.9745849 -2.205639,1.4362305 0.810444,0.1846582 1.446489,0.8412207 0.646304,0.6463037 1.302866,1.9696875 L 15.7575,0 h -4.206103 l -1.8671,-3.8060108 Q 9.1200636,-4.9549952 8.5353126,-5.3756055 7.9608204,-5.7962159 6.9964942,-5.7962159 Z"
             id="path196" />
        </g>
        <g
           aria-label="L"
           transform="matrix(0.991603,0.125629,0.125688,-0.99207,175.071,22.0281)"
           id="text100"
           style="font-weight:bold;font-size:21.0098px;font-family:Athelas;-inkscape-font-specification:Athelas-Bold;fill:#b99505">
          <path
             d="M 1.928634,-15.316226 H 5.8782302 V -2.9852792 H 12.813106 V 0 H 1.928634 Z"
             id="path199" />
        </g>
        <g
           aria-label="I"
           transform="matrix(0.983957,0.175757,0.175839,-0.984419,188.353,23.8059)"
           id="text104"
           style="font-weight:bold;font-size:21.0097px;font-family:Athelas;-inkscape-font-specification:Athelas-Bold;fill:#b99505">
          <path
             d="M 1.9286249,-15.316154 H 5.8782024 V 0 H 1.9286249 Z"
             id="path202" />
        </g>
        <g
           aria-label="V"
           transform="matrix(0.972062,0.232716,0.232825,-0.972519,197.074,25.3031)"
           id="text108"
           style="font-weight:bold;font-size:21.0095px;font-family:Athelas;-inkscape-font-specification:Athelas-Bold;fill:#b99505">
          <path
             d="M 0.10258545,-15.316008 H 4.0726424 L 8.1350263,-4.0110912 12.187152,-15.316008 h 3.970057 L 10.484233,0 H 5.7755609 Z"
             id="path205" />
        </g>
        <g
           aria-label="I"
           transform="matrix(0.956023,0.291691,0.291828,-0.956471,212.402,29.1238)"
           id="text112"
           style="font-weight:bold;font-size:21.0091px;font-family:Athelas;-inkscape-font-specification:Athelas-Bold;fill:#b99505">
          <path
             d="M 1.9285697,-15.315716 H 5.8780343 V 0 H 1.9285697 Z"
             id="path208" />
        </g>
        <g
           aria-label="N"
           transform="matrix(0.933831,0.356389,0.356557,-0.934274,220.961,31.6441)"
           id="text116"
           style="font-weight:bold;font-size:21.0088px;font-family:Athelas;-inkscape-font-specification:Athelas-Bold;fill:#b99505">
          <path
             d="M 1.9285422,-15.315498 H 6.3395697 L 11.909774,-4.8110974 V -15.315498 h 3.744244 V 0 H 11.242991 L 5.6727865,-10.5044 V 0 H 1.9285422 Z"
             id="path211" />
        </g>
        <g
           aria-label="G"
           transform="matrix(0.894845,0.445317,0.445526,-0.895269,236.684,37.7191)"
           id="text120"
           style="font-weight:bold;font-size:21.008px;font-family:Athelas;-inkscape-font-specification:Athelas-Bold;fill:#b99505">
          <path
             d="m 15.694453,-1.1386172 q -1.477125,0.7180469 -3.067086,1.07707033 -1.589961,0.35902342 -3.2825001,0.35902342 -3.8261639,0 -6.062367,-2.13362495 -2.2362031,-2.1438827 -2.2362031,-5.8059217 0,-3.7030699 2.2772344,-5.8264369 2.2772343,-2.123368 6.2367498,-2.123368 1.528414,0 2.923476,0.287219 1.405321,0.287219 2.646516,0.851399 v 3.169664 q -1.282227,-0.728305 -2.554195,-1.087329 -1.261711,-0.359023 -2.53368,-0.359023 -2.3592966,0 -3.6415232,1.323258 -1.2719687,1.313 -1.2719687,3.7646169 0,2.4311015 1.2309375,3.7543593 1.2309374,1.3232577 3.4979139,1.3232577 0.6154685,0 1.1386175,-0.071805 0.533406,-0.082063 0.953976,-0.2461875 V -5.8572108 H 9.5397654 v -2.6465155 h 6.1546876 z"
             id="path214" />
        </g>
      </g>
      <g
         id="g122"
         transform="scale(10)">
        <g
           aria-label="RESIDENTIAL
 &amp; COMMERCIAL
 SERVICES"
           transform="matrix(1,0,0,-1,42.6023,96.3301)"
           id="text130"
           style="font-weight:900;font-size:16.4069px;font-family:MyriadPro;-inkscape-font-specification:MyriadPro-Black;fill:#ffffff">
          <path
             d="m 5.8882187,-6.6572921 q 0.969353,0 1.3859344,-0.3605032 0.4245926,-0.3605032 0.4245926,-1.1856549 0,-0.8171406 -0.4245926,-1.1696326 -0.4165814,-0.352492 -1.3859344,-0.352492 H 4.5904072 v 3.0682827 z M 4.5904072,-4.5263177 V 0 h -3.084305 v -11.960694 h 4.7105749 q 2.3632986,0 3.4608306,0.793107 1.1055433,0.793107 1.1055433,2.5074994 0,1.1856549 -0.576805,1.9467172 -0.5687942,0.7610623 -1.7224044,1.1215655 0.6328833,0.1442012 1.1295766,0.6569169 0.5047048,0.5047044 1.0174198,1.5381469 L 12.305175,0 H 9.0205908 L 7.5625557,-2.9721485 Q 7.1219407,-3.8694008 6.6653033,-4.1978593 6.2166771,-4.5263177 5.463626,-4.5263177 Z"
             id="path217" />
          <path
             d="m 11.717502,-11.960694 h 8.323618 v 2.3312534 h -5.239313 v 2.2271086 h 4.926877 v 2.3312539 h -4.926877 v 2.7398242 h 5.415559 V 0 h -8.499864 z"
             id="path219" />
          <path
             d="m 29.105565,-11.584169 v 2.5315335 q -0.985376,-0.440615 -1.922684,-0.6649281 -0.937308,-0.2243131 -1.770471,-0.2243131 -1.105543,0 -1.634281,0.3044249 -0.528738,0.304425 -0.528738,0.9453195 0,0.4806709 0.352492,0.7530511 0.360503,0.264369 1.297811,0.4566374 l 1.313834,0.264369 q 1.994784,0.4005591 2.835958,1.2176996 0.841175,0.8171406 0.841175,2.3232427 0,1.978762 -1.177644,2.94811495 -1.169633,0.96134182 -3.580999,0.96134182 -1.137587,0 -2.283186,-0.21630191 -1.145599,-0.21630191 -2.291198,-0.64089454 V -3.2285063 q 1.145599,0.6088498 2.211086,0.9212859 1.073498,0.3044249 2.066885,0.3044249 1.009409,0 1.546158,-0.3364696 0.536749,-0.3364696 0.536749,-0.9613418 0,-0.5607827 -0.368514,-0.8652077 -0.360503,-0.3044249 -1.450024,-0.5447603 l -1.193666,-0.264369 q -1.794505,-0.3845368 -2.627668,-1.2257108 -0.825152,-0.8411741 -0.825152,-2.2671645 0,-1.7864938 1.15361,-2.7478358 1.153611,-0.961341 3.31663,-0.961341 0.985375,0 2.026829,0.152212 1.041453,0.144201 2.155008,0.440615 z"
             id="path221" />
          <path
             d="m 29.967988,-11.960694 h 3.084305 V 0 h -3.084305 z"
             id="path223" />
          <path
             d="m 38.100631,-9.6294406 v 7.2981867 h 1.105543 q 1.890639,0 2.884025,-0.9373083 1.001398,-0.9373083 1.001398,-2.7238018 0,-1.7784824 -0.993387,-2.7077795 -0.993386,-0.9292971 -2.892036,-0.9292971 z m -3.084305,-2.3312534 h 3.252539 q 2.723802,0 4.053658,0.392547 1.337868,0.384537 2.291198,1.313834 0.841175,0.8091296 1.249745,1.8666056 0.40857,1.057476 0.40857,2.3953434 0,1.3538897 -0.40857,2.4193769 -0.40857,1.057476 -1.249745,1.8666054 -0.961341,0.92929706 -2.30722,1.32184497 Q 40.960622,0 38.268865,0 h -3.252539 z"
             id="path225" />
          <path
             d="m 46.671618,-11.960694 h 8.323618 v 2.3312534 H 49.755923 V -7.402332 H 54.6828 v 2.3312539 h -4.926877 v 2.7398242 h 5.415559 V 0 h -8.499864 z"
             id="path227" />
          <path
             d="m 55.851313,-11.960694 h 3.444808 l 4.350072,8.2034497 v -8.2034497 h 2.924082 V 0 H 63.125466 L 58.775395,-8.2034502 V 0 h -2.924082 z"
             id="path229" />
          <path
             d="m 65.837428,-11.960694 h 11.023387 v 2.3312534 H 72.89528 V 0 h -3.084305 v -9.6294406 h -3.973547 z"
             id="path231" />
          <path
             d="M 76.461165,-11.960694 H 79.54547 V 0 h -3.084305 z"
             id="path233" />
          <path
             d="M 88.609936,-2.1790415 H 83.787205 L 83.026142,0 h -3.100327 l 4.430184,-11.960694 h 3.677132 L 92.463315,0 h -3.100328 z m -4.053658,-2.2190973 h 3.276573 l -1.634281,-4.758642 z"
             id="path235" />
          <path
             d="m 92.255599,-11.960694 h 3.084305 v 9.6294401 h 5.415556 V 0 h -8.499861 z"
             id="path237" />
          <path
             d="m 19.395199,8.6570187 3.276573,3.6050313 q 0.424593,-0.560782 0.640895,-1.257755 0.224313,-0.696973 0.264369,-1.5782029 h 2.491477 q -0.120167,1.4580349 -0.568794,2.5956229 -0.440615,1.137588 -1.233722,1.994784 l 2.347277,2.579601 h -3.396741 l -0.785096,-0.873219 q -0.841174,0.560783 -1.770471,0.833163 -0.929297,0.27238 -1.970751,0.27238 -2.106941,0 -3.412764,-1.105543 -1.297811,-1.113554 -1.297811,-2.868003 0,-1.169633 0.568794,-2.066885 Q 15.125239,9.8827295 16.42305,9.0335442 16.086581,8.6089516 15.926357,8.1843589 15.766134,7.7597663 15.766134,7.2951177 q 0,-1.3058226 1.01742,-2.0909184 1.01742,-0.7850958 2.707779,-0.7850958 0.729018,0 1.514113,0.1201677 0.793107,0.1121565 1.650304,0.3444808 V 7.1108606 Q 21.902699,6.7263238 21.22976,6.5420666 20.55682,6.3578095 19.915926,6.3578095 q -0.616861,0 -0.961342,0.2403354 -0.33647,0.2323243 -0.33647,0.6649281 0,0.2723802 0.192269,0.6248722 0.200279,0.3444808 0.584816,0.7690735 z m -1.594225,1.9867733 q -0.520727,0.376525 -0.785096,0.857196 -0.264369,0.47266 -0.264369,1.041454 0,0.921286 0.68095,1.570191 0.680951,0.648906 1.634281,0.648906 0.53675,0 1.001398,-0.160223 0.464649,-0.168235 0.865208,-0.496694 z"
             id="path239" />
          <path
             d="m 38.883071,15.939183 q -0.849185,0.440615 -1.770471,0.664928 -0.921286,0.224313 -1.922684,0.224313 -2.988171,0 -4.734608,-1.666326 -1.746438,-1.674337 -1.746438,-4.534329 0,-2.8680027 1.746438,-4.5343285 1.746437,-1.674337 4.734608,-1.674337 1.001398,0 1.922684,0.2243131 0.921286,0.224313 1.770471,0.664928 V 7.7837998 Q 38.025874,7.1989836 37.192711,6.9266034 36.359549,6.6542232 35.438263,6.6542232 q -1.650304,0 -2.595623,1.057476 -0.94532,1.057476 -0.94532,2.9160698 0,1.850583 0.94532,2.908059 0.945319,1.057476 2.595623,1.057476 0.921286,0 1.754448,-0.27238 0.833163,-0.27238 1.69036,-0.857196 z"
             id="path241" />
          <path
             d="m 44.401987,6.6542232 q -1.409968,0 -2.187053,1.0414536 -0.777084,1.0414537 -0.777084,2.9320922 0,1.882628 0.777084,2.924082 0.777085,1.041453 2.187053,1.041453 1.417979,0 2.195064,-1.041453 0.777084,-1.041454 0.777084,-2.924082 0,-1.8906385 -0.777084,-2.9320922 -0.777085,-1.0414536 -2.195064,-1.0414536 z m 0,-2.2351197 q 2.884025,0 4.518306,1.6503034 1.634281,1.6503035 1.634281,4.5583621 0,2.900048 -1.634281,4.550352 -1.634281,1.650303 -4.518306,1.650303 -2.876014,0 -4.518307,-1.650303 -1.634281,-1.650304 -1.634281,-4.550352 0,-2.9080586 1.634281,-4.5583621 1.642293,-1.6503034 4.518307,-1.6503034 z"
             id="path243" />
          <path
             d="m 50.859763,4.6354054 h 3.925479 l 2.723802,6.4009346 2.739824,-6.4009346 h 3.917468 V 16.5961 h -2.91607 V 7.8478893 L 58.494419,14.296891 H 56.539691 L 53.783844,7.8478893 V 16.5961 h -2.924081 z"
             id="path245" />
          <path
             d="m 65.117053,4.6354054 h 3.925479 l 2.723802,6.4009346 2.739824,-6.4009346 h 3.917468 V 16.5961 h -2.91607 V 7.8478893 L 72.751709,14.296891 H 70.796981 L 68.041134,7.8478893 V 16.5961 h -2.924081 z"
             id="path247" />
          <path
             d="m 79.399253,4.6354054 h 8.323617 v 2.3312539 h -5.239312 v 2.2271085 h 4.926876 v 2.3312542 h -4.926876 v 2.739824 h 5.415558 V 16.5961 h -8.499863 z"
             id="path249" />
          <path
             d="m 92.960576,9.9388077 q 0.969353,0 1.385934,-0.3605031 0.424593,-0.3605032 0.424593,-1.1856549 0,-0.8171406 -0.424593,-1.1696326 -0.416581,-0.352492 -1.385934,-0.352492 H 91.662764 V 9.9388077 Z M 91.662764,12.069782 V 16.5961 H 88.578459 V 4.6354054 h 4.710575 q 2.363299,0 3.460831,0.793107 1.105543,0.793107 1.105543,2.5074999 0,1.1856549 -0.576805,1.9467172 -0.568794,0.7610625 -1.722404,1.1215655 0.632883,0.144201 1.129576,0.656917 0.504705,0.504704 1.01742,1.538147 l 1.674337,3.396741 h -3.284584 l -1.458035,-2.972149 q -0.440615,-0.897252 -0.897253,-1.22571 -0.448626,-0.328459 -1.201677,-0.328459 z"
             id="path251" />
          <path
             d="m 108.07691,15.939183 q -0.84919,0.440615 -1.77048,0.664928 -0.92128,0.224313 -1.92268,0.224313 -2.98817,0 -4.734608,-1.666326 -1.746438,-1.674337 -1.746438,-4.534329 0,-2.8680027 1.746438,-4.5343285 1.746438,-1.674337 4.734608,-1.674337 1.0014,0 1.92268,0.2243131 0.92129,0.224313 1.77048,0.664928 v 2.4754552 q -0.8572,-0.5848162 -1.69036,-0.8571964 -0.83317,-0.2723802 -1.75445,-0.2723802 -1.65031,0 -2.59563,1.057476 -0.94532,1.057476 -0.94532,2.9160698 0,1.850583 0.94532,2.908059 0.94532,1.057476 2.59563,1.057476 0.92128,0 1.75445,-0.27238 0.83316,-0.27238 1.69036,-0.857196 z"
             id="path253" />
          <path
             d="m 108.411,4.6354054 h 3.08431 V 16.5961 H 108.411 Z"
             id="path255" />
          <path
             d="m 120.55927,14.417058 h -4.82273 l -0.76106,2.179042 h -3.10033 l 4.43018,-11.9606946 h 3.67713 L 124.41265,16.5961 h -3.10033 z m -4.05366,-2.219097 h 3.27657 L 118.1479,7.439319 Z"
             id="path257" />
          <path
             d="m 124.20544,4.6354054 h 3.0843 v 9.6294406 h 5.41556 V 16.5961 h -8.49986 z"
             id="path259" />
          <path
             d="m 94.29155,21.606032 v 2.531533 q -0.985375,-0.440615 -1.922683,-0.664928 -0.937309,-0.224313 -1.770472,-0.224313 -1.105543,0 -1.634281,0.304425 -0.528738,0.304425 -0.528738,0.94532 0,0.48067 0.352492,0.753051 0.360504,0.264369 1.297812,0.456637 l 1.313834,0.264369 q 1.994784,0.400559 2.835958,1.2177 0.841174,0.81714 0.841174,2.323242 0,1.978762 -1.177644,2.948115 -1.169632,0.961342 -3.580998,0.961342 -1.137588,0 -2.283187,-0.216302 -1.145599,-0.216302 -2.291198,-0.640894 v -2.603634 q 1.145599,0.608849 2.211086,0.921285 1.073499,0.304425 2.066885,0.304425 1.009409,0 1.546158,-0.336469 0.53675,-0.33647 0.53675,-0.961342 0,-0.560783 -0.368515,-0.865208 -0.360503,-0.304425 -1.450024,-0.54476 l -1.193666,-0.264369 q -1.794504,-0.384537 -2.627667,-1.225711 -0.825152,-0.841174 -0.825152,-2.267164 0,-1.786494 1.15361,-2.747836 1.15361,-0.961342 3.316629,-0.961342 0.985376,0 2.026829,0.152213 1.041454,0.144201 2.155008,0.440615 z"
             id="path261" />
          <path
             d="m 95.161574,21.229506 h 8.323616 v 2.331254 h -5.239311 v 2.227109 h 4.926881 v 2.331254 h -4.926881 v 2.739824 h 5.415561 v 2.331254 h -8.499866 z"
             id="path263" />
          <path
             d="m 108.72289,26.532909 q 0.96935,0 1.38593,-0.360503 0.4246,-0.360504 0.4246,-1.185655 0,-0.817141 -0.4246,-1.169633 -0.41658,-0.352492 -1.38593,-0.352492 h -1.29781 v 3.068283 z m -1.29781,2.130974 v 4.526318 h -3.08431 V 21.229506 h 4.71058 q 2.3633,0 3.46083,0.793107 1.10554,0.793107 1.10554,2.5075 0,1.185655 -0.5768,1.946717 -0.5688,0.761063 -1.72241,1.121566 0.63289,0.144201 1.12958,0.656917 0.5047,0.504704 1.01742,1.538147 l 1.67434,3.396741 h -3.28459 l -1.45803,-2.972149 q -0.44062,-0.897252 -0.89726,-1.22571 -0.44862,-0.328459 -1.20167,-0.328459 z"
             id="path265" />
          <path
             d="m 112.76683,21.229506 h 3.10033 l 3.17243,8.828323 3.16442,-8.828323 h 3.10032 l -4.43018,11.960695 h -3.67713 z"
             id="path267" />
          <path
             d="m 125.13812,21.229506 h 3.08431 v 11.960695 h -3.08431 z"
             id="path269" />
          <path
             d="m 139.62747,32.533284 q -0.84919,0.440615 -1.77048,0.664928 -0.92128,0.224313 -1.92268,0.224313 -2.98817,0 -4.73461,-1.666326 -1.74644,-1.674337 -1.74644,-4.534329 0,-2.868003 1.74644,-4.534329 1.74644,-1.674337 4.73461,-1.674337 1.0014,0 1.92268,0.224314 0.92129,0.224313 1.77048,0.664928 v 2.475455 q -0.8572,-0.584816 -1.69036,-0.857197 -0.83317,-0.27238 -1.75445,-0.27238 -1.65031,0 -2.59563,1.057476 -0.94532,1.057476 -0.94532,2.91607 0,1.850583 0.94532,2.908059 0.94532,1.057476 2.59563,1.057476 0.92128,0 1.75445,-0.27238 0.83316,-0.27238 1.69036,-0.857196 z"
             id="path271" />
          <path
             d="m 139.96937,21.229506 h 8.32362 v 2.331254 h -5.23931 v 2.227109 h 4.92688 v 2.331254 h -4.92688 v 2.739824 h 5.41556 v 2.331254 h -8.49987 z"
             id="path273" />
          <path
             d="m 157.35745,21.606032 v 2.531533 q -0.98538,-0.440615 -1.92269,-0.664928 -0.93731,-0.224313 -1.77047,-0.224313 -1.10554,0 -1.63428,0.304425 -0.52874,0.304425 -0.52874,0.94532 0,0.48067 0.35249,0.753051 0.36051,0.264369 1.29781,0.456637 l 1.31384,0.264369 q 1.99478,0.400559 2.83596,1.2177 0.84117,0.81714 0.84117,2.323242 0,1.978762 -1.17764,2.948115 -1.16964,0.961342 -3.581,0.961342 -1.13759,0 -2.28319,-0.216302 -1.1456,-0.216302 -2.2912,-0.640894 v -2.603634 q 1.1456,0.608849 2.21109,0.921285 1.0735,0.304425 2.06689,0.304425 1.0094,0 1.54615,-0.336469 0.53675,-0.33647 0.53675,-0.961342 0,-0.560783 -0.36851,-0.865208 -0.3605,-0.304425 -1.45003,-0.54476 l -1.19366,-0.264369 q -1.79451,-0.384537 -2.62767,-1.225711 -0.82515,-0.841174 -0.82515,-2.267164 0,-1.786494 1.15361,-2.747836 1.15361,-0.961342 3.31663,-0.961342 0.98537,0 2.02683,0.152213 1.04145,0.144201 2.15501,0.440615 z"
             id="path275" />
        </g>
      </g>
      <path
         d="m 607.691,1589.51 67.188,-29.23 41.144,35.04 130.649,-56.86 1.797,-53.67 73.133,-31.8 -18.973,275.34 -78.098,33.98 z m 237.18,-0.68 -90.488,39.37 87.293,74.85 z"
         style="fill:#711518;fill-opacity:1;fill-rule:nonzero;stroke:none"
         id="path132" />
      <path
         d="m 1230.58,1530.98 -86.49,37.6 20.03,46.03 238.28,-103.63 -20.04,-46.06 -86.44,37.6 -77.69,-178.56 -65.34,28.42 77.69,178.6"
         style="fill:#711518;fill-opacity:1;fill-rule:nonzero;stroke:none"
         id="path134" />
      <path
         d="m 1596.8,1426.41 65.35,-28.41 -77.67,-178.58 126.93,-55.21 -20.06,-46.02 -192.25,83.58 97.7,224.64"
         style="fill:#711518;fill-opacity:1;fill-rule:nonzero;stroke:none"
         id="path136" />
      <path
         d="m 1858.4,1045.51 67.21,-29.19 41.12,35.01 130.68,-56.842 1.8,-53.679 73.08,-31.821 -18.95,275.362 -78.1,33.93 z m 237.21,-0.66 -90.53,39.37 87.33,74.83 z"
         style="fill:#711518;fill-opacity:1;fill-rule:nonzero;stroke:none"
         id="path138" />
      <path
         d="m 2445.65,876.691 c -11.83,-28.902 -1.6,-41.152 28.86,-54.371 38.58,-16.789 50.45,-5.672 54.77,4.282 6.51,14.918 -6.88,26.668 -30.53,42.878 l -29.35,20.18 c -33.89,23.238 -66.81,53.891 -48.16,96.789 23.94,55.061 83.33,52.151 134.69,29.821 82.14,-35.719 94.47,-71.059 77.2,-116.809 l -63.49,27.598 c 8.18,23.832 -9.03,35.41 -28.6,43.902 -28.63,12.43 -45.28,8.23 -50.69,-4.231 -6.61,-15.218 12.14,-28.199 33.93,-43.609 l 27.48,-19.351 c 37.39,-26.27 65.18,-54.258 45.84,-98.731 -27.2,-62.519 -95.35,-46.59 -145.76,-24.629 -90.51,39.34 -88.84,84.86 -71.53,124.668 l 65.34,-28.387"
         style="fill:#711518;fill-opacity:1;fill-rule:nonzero;stroke:none"
         id="path140" />
    </g>
  </g>
</svg>
